0
SECTION
2
HEADER
9
$INSUNITS
70
4
9
$ACADVER
1
AC1014
9
$HANDSEED
5
FFFF
0
ENDSEC
0
SECTION
2
TABLES
0
TABLE
2
VPORT
5
8
100
AcDbSymbolTable
0
ENDTAB
0
TABLE
2
LTYPE
5
5
100
AcDbSymbolTable
0
LTYPE
5
14
100
AcDbSymbolTableRecord
100
AcDbLinetypeTableRecord
2
BYBLOCK
70
0
0
LTYPE
5
15
100
AcDbSymbolTableRecord
100
AcDbLinetypeTableRecord
2
BYLAYER
70
0
0
ENDTAB
0
TABLE
2
LAYER
5
2
100
AcDbSymbolTable
70
2
0
LAYER
5
50
100
AcDbSymbolTableRecord
100
AcDbLayerTableRecord
2
0
70
0
6
CONTINUOUS
0
ENDTAB
0
TABLE
2
STYLE
5
3
100
AcDbSymbolTable
70
1
0
STYLE
5
11
100
AcDbSymbolTableRecord
100
AcDbTextStyleTableRecord
2
STANDARD
70
0
0
ENDTAB
0
TABLE
2
VIEW
5
6
100
AcDbSymbolTable
70
0
0
ENDTAB
0
TABLE
2
UCS
5
7
100
AcDbSymbolTable
70
0
0
ENDTAB
0
TABLE
2
APPID
5
9
100
AcDbSymbolTable
70
2
0
APPID
5
12
100
AcDbSymbolTableRecord
100
AcDbRegAppTableRecord
2
ACAD
70
0
0
ENDTAB
0
TABLE
2
DIMSTYLE
5
A
100
AcDbSymbolTable
70
1
0
ENDTAB
0
TABLE
2
BLOCK_RECORD
5
1
100
AcDbSymbolTable
70
1
0
BLOCK_RECORD
5
1F
100
AcDbSymbolTableRecord
100
AcDbBlockTableRecord
2
*MODEL_SPACE
0
BLOCK_RECORD
5
1B
100
AcDbSymbolTableRecord
100
AcDbBlockTableRecord
2
*PAPER_SPACE
0
ENDTAB
0
ENDSEC
0
SECTION
2
BLOCKS
0
BLOCK
5
20
100
AcDbEntity
100
AcDbBlockBegin
2
*MODEL_SPACE
0
ENDBLK
5
21
100
AcDbEntity
100
AcDbBlockEnd
0
BLOCK
5
1C
100
AcDbEntity
100
AcDbBlockBegin
2
*PAPER_SPACE
0
ENDBLK
5
1D
100
AcDbEntity
100
AcDbBlockEnd
0
ENDSEC
0
SECTION
2
ENTITIES
0
LWPOLYLINE
5
100
100
AcDbEntity
8
0
100
AcDbPolyline
90
8
70
1
43
0.0
10
-7.7939133960356441
20
5.2571200776689047
10
-7.7939133960356441
20
5.262842106164487
10
-7.8658263907747319
20
5.262842106164487
42
0.03570807009359326
10
-8.5077531532968322
20
5.262842106164487
10
-15.331835515635643
20
5.2628421061644897
10
-15.331835515635648
20
-3.7371578938355112
10
-7.7939133960356468
20
-3.737157893835513
10
-7.793913396035645
20
-3.7085138995088398
42
0.91619257142431876
0
LWPOLYLINE
5
101
100
AcDbEntity
8
0
100
AcDbPolyline
90
8
70
1
43
0.0
10
22.66816448436435
20
-3.737157893835513
10
22.668164484364354
20
5.262842106164487
10
16.13417360922524
20
5.2628421061644906
42
0.035708070093590526
10
15.492246846703186
20
5.2628421061644897
10
15.130242364764355
20
5.2628421061644897
10
15.130242364764355
20
5.2221739165475096
42
0.8581706359879776
10
15.130242364764353
20
-3.6735677383874443
10
15.130242364764349
20
-3.7371578938355112
0
LWPOLYLINE
5
102
100
AcDbEntity
8
0
100
AcDbPolyline
90
8
70
1
43
0.0
10
41.572421663355684
20
17.948065029204695
10
59.590762680670615
20
17.948065029204695
10
59.590762680670615
20
13.448065029204695
10
62.590762680670622
20
13.448065029204695
10
62.590762680670622
20
20.948065029204692
10
32.590762680670622
20
20.948065029204692
10
32.590762680655686
20
13.448065029204692
10
41.572421663355684
20
13.448065029204692
0
CIRCLE
5
103
100
AcDbEntity
8
0
100
AcDbCircle
10
-39.867960242857322
20
-14.289168946307056
30
0
40
1.25
210
0
220
-0
230
1
0
CIRCLE
5
104
100
AcDbEntity
8
0
100
AcDbCircle
10
-39.867960242857322
20
12.710831053692953
30
0
40
1.25
210
0
220
-0
230
1
0
CIRCLE
5
105
100
AcDbEntity
8
0
100
AcDbCircle
10
-40
20
18.499999999999993
30
0
40
1.25
210
0
220
-0
230
1
0
CIRCLE
5
106
100
AcDbEntity
8
0
100
AcDbCircle
10
-40
20
-18.500000000000007
30
0
40
1.25
210
0
220
-0
230
1
0
LWPOLYLINE
5
107
100
AcDbEntity
8
0
100
AcDbPolyline
90
6
70
1
43
0.0
10
-29.934142192319602
20
10.710831053692949
10
-29.934142192319602
20
-12.289168946307058
10
-28.434142192319605
20
-12.289168946307052
42
0.41421356237309515
10
-25.434142192319598
20
-9.2891689463070506
10
-25.434142192319609
20
7.7108310536929503
42
0.41421356237309465
10
-28.434142192319605
20
10.710831053692949
0
LWPOLYLINE
5
108
100
AcDbEntity
8
0
100
AcDbPolyline
90
5
70
1
43
0.0
10
-56.474142192319611
20
-12.289168946307051
10
-53.474142192319611
20
-12.289168946307051
10
-53.474142192319611
20
-5.7491689463070506
10
-59.474142192319604
20
-5.7491689463070497
10
-59.474142192319604
20
-9.2891689463070506
42
0.41421356237309809
0
LWPOLYLINE
5
109
100
AcDbEntity
8
0
100
AcDbPolyline
90
4
70
1
43
0.0
10
-73.905202238858436
20
-19.001823703054804
10
-81.361695911422032
20
-8.3528471272979132
10
-83
20
-9.5000000000000018
10
-75.543506327436418
20
-20.148976575756894
0
LWPOLYLINE
5
110
100
AcDbEntity
8
0
100
AcDbPolyline
90
4
70
1
43
0.0
10
-81.361695911422032
20
8.3528471272979132
10
-73.905202238858436
20
19.001823703054804
10
-75.543506327436418
20
20.148976575756894
10
-83
20
9.5000000000000018
0
LWPOLYLINE
5
111
100
AcDbEntity
8
0
100
AcDbPolyline
90
4
70
1
43
0.0
10
-81.000000000000014
20
-6.5
10
-81.000000000000014
20
6.5
10
-83
20
6.5
10
-83
20
-6.5
0
LWPOLYLINE
5
112
100
AcDbEntity
8
0
100
AcDbPolyline
90
58
70
1
43
0.0
10
75
20
-21
10
62.590762680670622
20
-21
10
62.590762680670622
20
-7.0519349707952976
10
32.590762680670622
20
-7.0519349707952976
10
32.590762680670622
20
-21.000239946000036
10
28.325868218222006
20
-21.00023994599999
10
28.325868218222013
20
-21
10
22.668164484364347
20
-21
10
22.66816448436435
20
-19.999915219629365
10
-15.331835515635653
20
-19.999915219629361
10
-15.331835515635657
20
-21
10
-18.901353848945
20
-21
10
-21.901353848945
20
-18
10
-21.901353848945
20
-16.000000000000007
10
-24.901353848945007
20
-13.000000000000004
10
-28.901353848945
20
-13.000000000000004
10
-31.901353848945
20
-16.000000000000007
10
-31.901353848945
20
-18
10
-34.901353848945
20
-21
10
-44.901353848945007
20
-21
10
-47.901353848945007
20
-18
10
-47.901353848945007
20
-16.000000000000007
10
-50.901353848945007
20
-13.000000000000004
10
-54.901353848945007
20
-13.000000000000004
10
-57.901353848945007
20
-16.000000000000007
10
-57.901353848945007
20
-18
10
-60.900999999999996
20
-20.999646151055003
10
-72.736000000000004
20
-20.999646151055003
10
-72.736000000000004
20
-21
10
-81
20
-21
10
-85
20
-17
10
-85
20
17
10
-81
20
21
10
-72.736000000000004
20
21
10
-72.736000000000004
20
20.999646151054993
10
-60.900999999999996
20
20.999646151054996
10
-57.901353848945007
20
18
10
-57.901353848945007
20
16.000000000000007
10
-54.901353848945007
20
13.000000000000004
10
-50.901353848945007
20
13.000000000000004
10
-47.901353848945007
20
16.000000000000004
10
-47.901353848945007
20
18
10
-44.901353848945007
20
21
10
-34.901353848945
20
21
10
-31.901353848945
20
18
10
-31.901353848945
20
16.000000000000007
10
-28.901353848945
20
13.000000000000004
10
-24.901353848945007
20
13.000000000000004
10
-21.901353848945
20
16.000000000000004
10
-21.901353848945
20
18
10
-18.901353848945
20
21
10
-15.331835515635646
20
21
10
-15.331835515635648
20
20.000084780370642
10
22.668164484364361
20
20.000084780370631
10
22.668164484364361
20
21
10
75
20
21
10
79
20
17.000000000000004
10
79
20
-17
0
LWPOLYLINE
5
113
100
AcDbEntity
8
0
100
AcDbPolyline
90
4
70
1
43
0.0
10
75.168725576035925
20
6.4999999999999991
10
75.168725576035925
20
-6.5000000000000018
10
77.168725576035925
20
-6.5000000000000018
10
77.168725576035925
20
6.4999999999999991
0
LWPOLYLINE
5
114
100
AcDbEntity
8
0
100
AcDbPolyline
90
4
70
1
43
0.0
10
68.073927814894347
20
19.001823703054804
10
75.530421487457943
20
8.3528471272979115
10
77.168725576035925
20
9.5000000000000018
10
69.712231903472329
20
20.148976575756894
0
LWPOLYLINE
5
115
100
AcDbEntity
8
0
100
AcDbPolyline
90
4
70
1
43
0.0
10
75.530421487457943
20
-8.3528471272979132
10
68.073927814894347
20
-19.001823703054804
10
69.712231903472329
20
-20.148976575756894
10
77.168725576035925
20
-9.5000000000000036
0
CIRCLE
5
116
100
AcDbEntity
8
0
100
AcDbCircle
10
-12.186789772035787
20
0.77430308908003309
30
0
40
1.5000000000000002
210
0
220
0
230
1
0
CIRCLE
5
117
100
AcDbEntity
8
0
100
AcDbCircle
10
19.813210227964216
20
0.77430308908003309
30
0
40
1.5000000000000002
210
0
220
0
230
1
0
LWPOLYLINE
5
118
100
AcDbEntity
8
0
100
AcDbPolyline
90
48
70
1
43
0.0
10
-47.901353848945007
20
16.000000000000007
10
-47.901353848945007
20
18
10
-44.901353848945007
20
21.000000000000007
10
-34.901353848945
20
21
10
-31.901353848945003
20
18
10
-31.901353848945003
20
16.000000000000007
10
-28.901353848945
20
13.000000000000004
10
-24.901353848945007
20
13.000000000000004
10
-21.901353848945003
20
16.000000000000007
10
-21.901353848945003
20
18
10
-18.901353848944993
20
21
10
75
20
21
10
79.000000000000014
20
16.999999999999993
10
79
20
-17
10
75
20
-20.999999999999996
10
60.923868218222019
20
-21
10
60.923868218222012
20
-21.000239946000082
10
28.325868218222009
20
-21.00023994599999
10
28.325868218221999
20
-21
10
-18.901353848945
20
-21
10
-21.901353848945
20
-18
10
-21.901353848945003
20
-16.000000000000007
10
-24.901353848945007
20
-13
10
-28.901353848945
20
-13.000000000000004
10
-31.901353848945007
20
-16
10
-31.901353848945003
20
-18
10
-34.901353848945
20
-21.000000000000007
10
-44.901353848945007
20
-21
10
-47.901353848945007
20
-18
10
-47.901353848945007
20
-16.000000000000007
10
-50.901353848945007
20
-13
10
-54.901353848945007
20
-13.000000000000004
10
-57.901353848945014
20
-16.000000000000004
10
-57.901353848945007
20
-18
10
-60.900999999999996
20
-20.999646151054996
10
-72.736000000000004
20
-20.999646151054996
10
-72.736000000000004
20
-21
10
-81
20
-21
10
-85
20
-17
10
-85
20
16.999999999999996
10
-81
20
21
10
-72.736000000000004
20
21
10
-72.736000000000004
20
20.999646151055003
10
-60.900999999999996
20
20.999646151055003
10
-57.901353848944993
20
18.000000000000004
10
-57.901353848945007
20
16.000000000000007
10
-54.901353848945007
20
13.000000000000004
10
-50.901353848945007
20
13.000000000000004
0
CIRCLE
5
119
100
AcDbEntity
8
0
100
AcDbCircle
10
15.813210227964216
20
0.77430308908003154
30
0
40
1.5000000000000002
210
0
220
-0
230
1
0
CIRCLE
5
120
100
AcDbEntity
8
0
100
AcDbCircle
10
-8.1867897720357874
20
0.7743030890800312
30
0
40
1.5000000000000002
210
0
220
-0
230
1
0
CIRCLE
5
121
100
AcDbEntity
8
0
100
AcDbCircle
10
-40
20
-18.500000000000007
30
0
40
1.25
210
0
220
-0
230
1
0
CIRCLE
5
122
100
AcDbEntity
8
0
100
AcDbCircle
10
-40
20
18.499999999999993
30
0
40
1.25
210
0
220
-0
230
1
0
CIRCLE
5
123
100
AcDbEntity
8
0
100
AcDbCircle
10
-56.474142192319619
20
-9.289168946307063
30
0
40
1.5000000000000002
210
0
220
-0
230
1
0
CIRCLE
5
124
100
AcDbEntity
8
0
100
AcDbCircle
10
-28.434142192319605
20
-9.2891689463070506
30
0
40
1.5000000000000002
210
0
220
-0
230
1
0
CIRCLE
5
125
100
AcDbEntity
8
0
100
AcDbCircle
10
-28.434142192319612
20
7.7108310536929512
30
0
40
1.5000000000000002
210
0
220
-0
230
1
0
CIRCLE
5
126
100
AcDbEntity
8
0
100
AcDbCircle
10
34.090762680670615
20
-17.351934970795316
30
0
40
1.5000000000000002
210
0
220
-0
230
1
0
CIRCLE
5
127
100
AcDbEntity
8
0
100
AcDbCircle
10
60.875990534646832
20
-17.351934970795316
30
0
40
1.5000000000000002
210
0
220
-0
230
1
0
CIRCLE
5
128
100
AcDbEntity
8
0
100
AcDbCircle
10
34.090762680670615
20
-10.351934970795313
30
0
40
1.5000000000000002
210
0
220
-0
230
1
0
CIRCLE
5
129
100
AcDbEntity
8
0
100
AcDbCircle
10
60.875990534646832
20
-10.351934970795313
30
0
40
1.5000000000000002
210
0
220
-0
230
1
0
CIRCLE
5
130
100
AcDbEntity
8
0
100
AcDbCircle
10
34.090762680670615
20
17.148065029204691
30
0
40
1.5000000000000002
210
0
220
-0
230
1
0
CIRCLE
5
131
100
AcDbEntity
8
0
100
AcDbCircle
10
60.875990534646832
20
19.062758218619596
30
0
40
1.5000000000000002
210
0
220
-0
230
1
0
CIRCLE
5
132
100
AcDbEntity
8
0
100
AcDbCircle
10
-39.867960242857322
20
12.710831053692953
30
0
40
1.25
210
0
220
-0
230
1
0
CIRCLE
5
133
100
AcDbEntity
8
0
100
AcDbCircle
10
-39.867960242857322
20
-14.289168946307056
30
0
40
1.25
210
0
220
-0
230
1
0
ENDSEC
0
SECTION
2
OBJECTS
0
DICTIONARY
5
C
100
AcDbDictionary
3
ACAD_GROUP
350
D
3
ACAD_MLINESTYLE
350
17
0
DICTIONARY
5
D
100
AcDbDictionary
0
DICTIONARY
5
1A
330
C
100
AcDbDictionary
0
DICTIONARY
5
17
100
AcDbDictionary
0
ENDSEC
0
EOF
